HIERARCHY
ROOT hip
{
	OFFSET 0.000000 0.000000 0.000000 
	CHANNELS 6 Xposition Yposition Zposition Xrotation Zrotation Yrotation
	JOINT abdomen
	{
		OFFSET 0.000000 3.402643 0.000000 
		CHANNELS 3 Xrotation Zrotation Yrotation
		JOINT chest
		{
			OFFSET 0.000000 8.438565 -0.680529 
			CHANNELS 3 Xrotation Zrotation Yrotation
			JOINT neck
			{
				OFFSET 0.000000 10.207942 -0.272212 
				CHANNELS 3 Xrotation Zrotation Yrotation
				JOINT head
				{
					OFFSET 0.000000 3.130431 0.000000 
					CHANNELS 3 Xrotation Zrotation Yrotation
					End Site
					{
						OFFSET 0.000000 3.130435 0.000000 
					}
				}
			}
			JOINT lCollar
			{
				OFFSET 3.470700 6.669187 -0.816635 
				CHANNELS 3 Yrotation Zrotation Xrotation
				JOINT lShldr
				{
					OFFSET 3.198488 0.000000 0.000000 
					CHANNELS 3 Zrotation Yrotation Xrotation
					JOINT lForeArm
					{
						OFFSET 10.139888 0.000000 0.000000 
						CHANNELS 3 Yrotation Zrotation Xrotation
						JOINT lHand
						{
							OFFSET 8.370511 0.000000 0.000000 
							CHANNELS 3 Zrotation Yrotation Xrotation
							End Site
							{
								OFFSET 4.083176 0.000000 0.000000 
							}
						}
					}
				}
			}
			JOINT rCollar
			{
				OFFSET -3.470700 6.669187 -0.816635 
				CHANNELS 3 Yrotation Zrotation Xrotation
				JOINT rShldr
				{
					OFFSET -3.198488 0.000000 0.000000 
					CHANNELS 3 Zrotation Yrotation Xrotation
					JOINT rForeArm
					{
						OFFSET -10.139888 0.000000 0.000000 
						CHANNELS 3 Yrotation Zrotation Xrotation
						JOINT rHand
						{
							OFFSET -8.370511 0.000000 0.000000 
							CHANNELS 3 Zrotation Yrotation Xrotation
							End Site
							{
								OFFSET -4.083176 0.000000 0.000000 
							}
						}
					}
				}
			}
		}
	}
	JOINT lThigh
	{
		OFFSET 5.308129 -1.633274 1.361059 
		CHANNELS 3 Xrotation Zrotation Yrotation
		JOINT lShin
		{
			OFFSET -2.041588 -20.007561 0.000000 
			CHANNELS 3 Xrotation Zrotation Yrotation
			JOINT lFoot
			{
				OFFSET 0.000000 -19.190928 -1.224953 
				CHANNELS 3 Xrotation Yrotation Zrotation
				End Site
				{
					OFFSET 0.000000 -2.449906 4.627600 
				}
			}
		}
	}
	JOINT rThigh
	{
		OFFSET -5.308129 -1.633274 1.361059 
		CHANNELS 3 Xrotation Zrotation Yrotation
		JOINT rShin
		{
			OFFSET 2.041588 -20.007561 0.000000 
			CHANNELS 3 Xrotation Zrotation Yrotation
			JOINT rFoot
			{
				OFFSET 0.000000 -19.190928 -1.224953 
				CHANNELS 3 Xrotation Yrotation Zrotation
				End Site
				{
					OFFSET 0.000000 -2.449906 4.627600 
				}
			}
		}
	}
}
MOTION
Frames: 20
Frame Time: 0.033333
-0.753456 48.179108 -2.966928 0.009766 0.029297 0.117197 0.000000 0.000000 0.000000 -3.300784 -0.077995 -0.151752 5.527078 0.058555 -0.145647 5.498025 -0.214528 0.099530 -0.048582 9.570089 -2.457701 0.931698 -0.189965 -7.450824 1.218358 -7.362080 12.902887 1.063508 -3.854316 -3.452504 0.152890 -9.288241 -2.433003 0.550608 -8.700370 -12.314379 -1.460400 6.304554 19.889837 -2.577802 4.867352 -3.571577 1.170077 9.191226 4.359300 8.321356 -2.859656 -1.097247 -8.845278 0.478744 -6.305618 2.332386 -7.935981 -4.145265 8.885367 2.391414 -6.405901 -9.867277 -0.613185 6.819934 
-0.751695 48.184387 -2.961920 -0.058594 0.048828 0.097606 0.000000 0.000000 0.000000 -3.251960 -0.116999 -0.198430 5.546469 0.037990 -0.186668 5.576147 -0.234048 0.119800 -0.086911 9.669652 -2.419995 0.764122 -0.112228 -7.567153 1.241270 -7.293140 13.069573 1.027383 -3.905413 -3.450828 0.170314 -9.317490 -2.393178 0.489608 -8.701119 -12.194211 -1.468888 6.351383 19.775686 -2.609569 4.904524 -3.574112 1.355506 9.152842 4.358386 8.105004 -2.849183 -1.180165 -8.762526 0.464578 -6.310796 2.488320 -7.954278 -4.186365 8.757888 2.390945 -6.257463 -9.848857 -0.603966 6.791743 
-0.755847 48.181747 -2.952594 -0.048828 0.029297 0.097631 0.000000 0.000000 0.000000 -3.261725 -0.116998 -0.208176 5.478340 -0.023040 -0.234450 5.742176 -0.165809 0.037584 -0.129278 9.593410 -2.423658 0.912931 -0.140939 -7.412999 1.256925 -7.393750 12.879342 0.901298 -3.766260 -3.443126 0.149081 -9.306835 -2.404460 0.346996 -8.771317 -11.893230 -1.437630 6.444545 19.688862 -2.629735 4.913061 -3.575249 1.355537 9.171875 4.369733 8.153615 -2.849240 -1.280758 -8.825483 0.473903 -6.296758 2.509007 -7.928967 -4.174133 8.758236 2.381315 -6.189751 -9.889385 -0.597390 6.774053 
-0.756854 48.182251 -2.944327 0.068359 0.039062 0.068413 0.000000 0.000000 0.000000 -3.388683 -0.146228 -0.225717 5.517340 -0.036724 -0.301799 5.546867 -0.126773 -0.012762 -0.143796 9.654117 -2.549959 0.897052 -0.110673 -7.209099 1.196045 -7.446766 12.796671 1.035698 -3.719026 -3.451321 0.110038 -9.345112 -2.523127 0.315130 -8.762384 -11.754976 -1.408729 6.455986 19.803558 -2.574704 4.975173 -3.571832 1.229218 9.166039 4.357956 8.174514 -2.868942 -1.059243 -8.812404 0.465104 -6.311386 2.341544 -7.934192 -4.135315 8.810243 2.368884 -6.401684 -9.874430 -0.594749 6.818131 
-0.750184 48.188793 -2.933014 0.068359 0.107422 0.039209 0.000000 0.000000 0.000000 -3.447292 -0.224203 -0.230635 5.585253 0.007156 -0.338871 5.478485 -0.253529 0.033373 -0.117214 9.731791 -2.602093 0.768191 -0.150189 -7.332635 1.134992 -7.371321 12.581764 1.129238 -3.644892 -3.456534 0.071002 -9.441398 -2.575625 0.417139 -8.751287 -11.974725 -1.401024 6.367575 19.954981 -2.486079 4.970867 -3.566707 1.395144 9.108493 4.365147 7.887496 -2.921294 -1.004464 -8.684657 0.451664 -6.272475 2.419669 -8.013108 -4.181651 8.709804 2.352340 -6.311491 -9.841009 -0.593758 6.850501 
-0.741123 48.189922 -2.927037 0.058594 0.068359 -0.038981 0.000000 0.000000 0.000000 -3.457049 -0.185209 -0.154827 5.487977 -0.024051 -0.266186 5.712864 -0.243830 0.012312 -0.056658 9.591476 -2.611058 0.943076 -0.267640 -7.352319 1.100814 -7.408586 12.295350 1.068861 -3.619189 -3.453024 0.066193 -9.451771 -2.589303 0.450911 -8.808376 -12.222176 -1.411274 6.295424 19.864851 -2.632166 4.952048 -3.575246 1.454044 9.128627 4.406780 7.845617 -2.918695 -1.040822 -8.693904 0.453437 -6.282475 2.506884 -7.989735 -4.189596 8.570043 2.349494 -6.085698 -9.795836 -0.592711 6.806854 
-0.736719 48.189800 -2.923450 0.117188 0.039062 -0.087804 0.000000 0.000000 0.000000 -3.505871 -0.146210 -0.147292 5.371065 -0.091000 -0.212290 5.888672 -0.029264 -0.018149 -0.049931 9.425303 -2.650944 1.161728 -0.237453 -7.107036 1.060447 -7.504377 12.314146 1.336133 -3.661715 -3.468780 0.059815 -9.383512 -2.637914 0.333477 -8.837541 -12.245652 -1.399851 6.310008 19.639719 -2.643162 4.970936 -3.575812 1.335764 9.151505 4.417319 7.966760 -2.939599 -0.922613 -8.725902 0.452924 -6.261871 2.419962 -7.982799 -4.178970 8.528579 2.388822 -6.105259 -9.755630 -0.574304 6.782723 
-0.737476 48.188667 -2.918543 0.058594 0.048828 -0.146426 0.000000 0.000000 0.000000 -3.476577 -0.165710 -0.214542 5.439374 -0.086865 -0.176171 5.761718 -0.039014 0.070296 -0.014984 9.404482 -2.628591 1.151035 -0.169355 -7.166439 1.085933 -7.443707 12.657210 1.303864 -3.614753 -3.467031 0.116985 -9.356004 -2.601768 0.235461 -8.788622 -12.259874 -1.408976 6.325011 19.563206 -2.535653 4.821037 -3.569308 1.394629 9.162209 4.458236 7.998081 -2.976044 -0.829363 -8.748219 0.458348 -6.248929 2.440430 -7.997652 -4.180163 8.585496 2.368688 -6.102948 -9.737356 -0.597601 6.803480 
-0.732567 48.190426 -2.915698 -0.058594 0.019531 -0.214864 0.000000 0.000000 0.000000 -3.417980 -0.146224 -0.215876 5.566175 -0.035917 -0.197056 5.498023 -0.224280 0.100059 0.017287 9.461136 -2.573775 1.149597 -0.098859 -6.698601 1.003397 -7.587388 12.525404 1.146114 -3.438417 -3.457665 0.197149 -9.319984 -2.531610 0.215126 -8.788866 -12.219817 -1.418671 6.334898 19.564655 -2.647519 4.726055 -3.576140 1.562076 9.168726 4.499874 7.975264 -2.948955 -0.874939 -8.767592 0.461120 -6.258698 2.596195 -7.965250 -4.187284 8.501693 2.370537 -6.059282 -9.716119 -0.585743 6.798085 
-0.724891 48.189419 -2.912616 -0.087891 -0.048828 -0.292894 0.000000 0.000000 0.000000 -3.388676 -0.087737 -0.151055 5.507664 0.003062 -0.200553 5.585903 -0.273058 0.053457 0.055380 9.556421 -2.550949 1.142516 -0.056713 -5.996783 0.901658 -7.879283 11.909009 1.368600 -3.229263 -3.480825 0.243702 -9.185647 -2.516935 0.125340 -8.838190 -12.136017 -1.456969 6.387393 19.522194 -2.670676 4.939878 -3.577520 1.590310 9.243114 4.516156 8.068108 -2.908406 -1.035028 -8.878171 0.482135 -6.282981 2.663879 -7.906284 -4.162384 8.377160 2.400978 -5.977311 -9.636628 -0.563848 6.763950 
-0.721491 48.175827 -2.916150 -0.097656 -0.087891 -0.380710 0.000000 0.000000 0.000000 -3.378908 -0.058492 -0.084437 5.478462 0.001099 -0.142224 5.615219 -0.185295 0.019438 0.062069 9.565173 -2.541286 1.134865 -0.026911 -5.880247 0.928460 -7.964618 11.808249 1.454089 -3.184933 -3.485507 0.308815 -9.071827 -2.508788 -0.005312 -8.868509 -11.963707 -1.475002 6.462330 19.429903 -2.539835 5.045820 -3.570404 1.415453 9.267172 4.476403 8.542310 -2.832147 -0.924056 -9.153936 0.486964 -6.317750 2.509475 -7.880172 -4.130307 8.675315 2.389263 -5.930594 -9.778354 -0.577061 6.760137 
-0.722625 48.174698 -2.925199 -0.136719 -0.048828 -0.380743 0.000000 0.000000 0.000000 -3.349614 -0.097489 -0.082185 5.498073 -0.077825 -0.181311 5.654296 -0.048763 -0.056082 0.011372 9.420691 -2.506684 1.261340 0.002172 -5.893346 0.938764 -7.953746 11.828586 1.289309 -3.214507 -3.476166 0.252786 -9.127442 -2.477330 0.073632 -8.809792 -11.986877 -1.485120 6.459903 19.469917 -2.534371 4.958098 -3.569557 1.463796 9.185225 4.431081 8.577441 -2.791887 -0.875419 -9.214336 0.501521 -6.333522 2.527208 -7.915811 -4.133657 8.745925 2.341444 -5.812291 -9.835479 -0.581967 6.791183 
-0.721491 48.170418 -2.942174 -0.166016 0.000000 -0.410156 0.000000 0.000000 0.000000 -3.310559 -0.155989 -0.108164 5.537036 -0.082009 -0.179724 5.634763 -0.068268 -0.015991 0.058801 9.408939 -2.488757 1.212946 0.021838 -5.876417 0.917748 -7.949337 11.736774 1.238125 -3.178475 -3.472703 0.297800 -9.177764 -2.447106 0.184775 -8.769642 -12.167889 -1.506471 6.393321 19.595968 -2.591833 4.934975 -3.572973 1.463755 9.137843 4.397744 8.627068 -2.792248 -0.927262 -9.241593 0.484442 -6.331247 2.438290 -7.969905 -4.138522 8.940362 2.292280 -5.754935 -9.912343 -0.602669 6.847388 
-0.717464 48.153934 -2.958044 -0.146484 0.019531 -0.439503 0.000000 0.000000 0.000000 -3.300800 -0.194988 -0.086411 5.615010 -0.017411 -0.168025 5.410138 -0.195009 0.049943 0.071063 9.457151 -2.478615 1.147961 0.032450 -5.694468 0.882571 -8.026192 11.442932 1.408841 -3.246386 -3.483153 0.384864 -9.083652 -2.426778 0.074836 -8.838672 -12.055406 -1.535569 6.422969 19.600403 -2.590010 4.905734 -3.572975 1.201145 9.140544 4.335793 8.956758 -2.791708 -0.889451 -9.326280 0.519809 -6.337424 2.155317 -8.010613 -4.102425 9.417822 2.291921 -5.794950 -10.120101 -0.622778 6.884716 
-0.718726 48.160477 -2.969056 -0.166016 -0.039062 -0.410043 0.000000 0.000000 0.000000 -3.242197 -0.136500 -0.070393 5.615147 -0.039402 -0.154301 5.390613 -0.156004 0.018523 0.044342 9.379487 -2.413580 1.236230 0.012949 -5.660562 0.878877 -8.058787 11.237629 1.422170 -3.304278 -3.483740 0.360664 -9.101686 -2.375849 0.142502 -8.878141 -11.990794 -1.555677 6.436338 19.700825 -2.545431 4.820433 -3.569877 1.200487 9.197579 4.369850 8.919662 -2.782421 -0.857229 -9.270534 0.496172 -6.358487 2.284897 -7.959182 -4.117487 9.179092 2.342245 -5.718312 -10.003744 -0.602272 6.827650 
-0.719858 48.169037 -2.983501 -0.195313 -0.087890 -0.448919 0.000000 0.000000 0.000000 -3.193364 -0.097505 -0.053154 5.703216 -0.152042 -0.096746 5.263650 0.204730 -0.099838 0.049540 9.300458 -2.362970 1.281216 0.021764 -5.872891 0.925175 -7.949689 11.581713 1.340498 -3.250536 -3.479082 0.358244 -9.257669 -2.329521 0.429098 -8.848224 -12.092987 -1.507249 6.386284 19.703156 -2.491688 4.745479 -3.557269 1.356442 9.255942 4.445274 8.778432 -2.790829 -1.024163 -9.242212 0.492633 -6.338185 2.389287 -7.912017 -4.133520 8.945182 2.381932 -5.729818 -9.839489 -0.595614 6.773947 
-0.731560 48.167522 -2.999584 -0.126953 -0.107422 -0.439215 0.000000 0.000000 0.000000 -3.183598 -0.097506 -0.053170 5.752083 -0.190662 -0.102275 5.185486 0.341189 -0.157096 0.099990 9.308126 -2.361043 1.269836 -0.037190 -5.961030 0.935452 -7.929684 11.591942 1.395513 -3.188493 -3.482020 0.307359 -9.294705 -2.336979 0.528871 -8.798814 -12.187057 -1.488063 6.364596 19.729448 -2.513063 4.773511 -3.558407 1.209248 9.280722 4.445540 8.885051 -2.812994 -1.002932 -9.273395 0.483428 -6.310746 2.263154 -7.895167 -4.092548 8.986037 2.388606 -5.785082 -9.839872 -0.597480 6.773077 
-0.740367 48.172810 -3.014912 -0.029297 -0.087891 -0.400346 0.000000 0.000000 0.000000 -3.183603 -0.136508 -0.070532 5.722836 -0.208715 -0.151912 5.273396 0.282725 -0.143404 0.069730 9.260818 -2.361154 1.327357 -0.008208 -6.016712 0.913700 -7.909491 11.442324 1.279823 -3.058544 -3.475606 0.300813 -9.264790 -2.334559 0.500727 -8.798349 -12.263669 -1.468587 6.336992 19.696846 -2.440293 4.866065 -3.553836 1.111396 9.279627 4.444317 8.739626 -2.859209 -0.918422 -9.115129 0.485931 -6.306800 2.167512 -7.889208 -4.062234 8.941727 2.380547 -5.905535 -9.788279 -0.582462 6.768519 
-0.732190 48.177219 -3.027446 -0.009766 -0.078125 -0.341784 0.000000 0.000000 0.000000 -3.134777 -0.156016 -0.089112 5.703200 -0.151586 -0.227501 5.488271 0.146268 -0.144679 0.021752 9.233320 -2.316480 1.394090 0.001101 -6.101103 0.941935 -7.905740 11.357841 1.191971 -3.063868 -3.470358 0.312652 -9.205935 -2.282708 0.401957 -8.837635 -12.229624 -1.476295 6.373260 19.445396 -2.538621 5.026326 -3.569548 1.151524 9.285949 4.445140 8.562087 -2.881168 -1.093826 -9.019732 0.488367 -6.271763 2.206830 -7.890050 -4.062251 8.843681 2.370722 -5.931504 -9.759056 -0.585123 6.766768 
-0.728163 48.169666 -3.037943 0.019531 -0.068359 -0.263707 0.000000 0.000000 0.000000 -3.076190 -0.195031 -0.116472 5.751824 -0.074518 -0.272448 5.507812 0.039005 -0.080235 0.061428 9.358784 -2.268879 1.247514 -0.086663 -6.118048 0.954876 -7.894035 11.544173 1.383969 -3.159844 -3.481437 0.274709 -9.164341 -2.227258 0.303113 -8.808555 -12.195148 -1.496199 6.388553 19.516541 -2.767830 5.080623 -3.583469 0.946929 9.276107 4.382673 8.796742 -2.842046 -0.911350 -9.074564 0.481989 -6.307931 2.106785 -7.913527 -4.054716 9.010920 2.390800 -5.930057 -9.836893 -0.588531 6.788034 
